<?xml version="1.0" standalone="no"?>
<!DOCTYPE svg PUBLIC "-//W3C//DTD SVG 20010904//EN"
 "http://www.w3.org/TR/2001/REC-SVG-20010904/DTD/svg10.dtd">
<svg version="1.0" xmlns="http://www.w3.org/2000/svg"
 width="700.000000pt" height="700.000000pt" viewBox="0 0 700.000000 700.000000"
 preserveAspectRatio="xMidYMid meet">
<metadata>
Created by potrace 1.11, written by Peter Selinger 2001-2013
</metadata>
<g transform="translate(0.000000,700.000000) scale(0.100000,-0.100000)"
fill="#000000" stroke="none">
<path d="M1869 5136 c-893 -894 -1624 -1630 -1624 -1636 0 -6 732 -743 1627
-1638 l1628 -1627 1632 1632 1632 1632 -26 28 c-104 108 -3229 3228 -3236
3231 -4 1 -739 -729 -1633 -1622z m1246 -618 c40 -22 321 -302 343 -342 15
-28 17 -86 19 -621 2 -552 1 -593 -16 -630 -23 -51 -295 -327 -350 -355 -39
-19 -56 -20 -593 -20 l-553 0 0 995 0 996 560 -3 c500 -3 563 -5 590 -20z
m1310 -805 l-1 -823 488 0 c268 0 488 -3 489 -7 0 -13 1 -266 0 -300 l-1 -33
-665 0 -665 0 -1 23 c0 29 0 1903 0 1940 l1 27 177 -2 178 -3 0 -822z"/>
<path d="M2324 3545 l0 -655 322 0 321 0 77 76 c42 42 76 83 77 93 1 22 1 918
0 958 -1 27 -14 46 -78 108 l-77 75 -321 0 -321 0 0 -655z"/>
<path d="M1786 6414 c-3 -11 -40 -149 -81 -309 -42 -159 -91 -347 -109 -416
l-33 -127 71 20 c39 11 94 26 121 33 28 7 138 36 245 65 l195 53 238 237 c209
208 235 238 215 243 -13 3 -50 12 -83 21 -73 21 -404 107 -425 111 -8 2 -76
20 -150 40 -188 50 -197 51 -204 29z"/>
<path d="M5025 6306 c-44 -13 -125 -36 -180 -51 -55 -15 -120 -33 -145 -40
-25 -8 -97 -28 -160 -45 -63 -18 -118 -35 -122 -39 -4 -3 233 -247 527 -541
l535 -535 -20 70 c-11 39 -34 120 -50 180 -16 61 -36 136 -44 169 -9 32 -30
111 -47 175 -17 64 -53 195 -79 291 -26 96 -60 223 -76 282 -21 78 -33 108
-44 107 -8 0 -51 -11 -95 -23z"/>
<path d="M1800 5431 c-136 -40 -128 -38 -168 -47 -15 -3 -66 -17 -113 -30 -47
-14 -95 -26 -105 -28 -10 -3 -176 -47 -368 -100 -192 -53 -355 -96 -361 -96
-8 0 -4 -27 12 -87 23 -85 51 -191 131 -493 l39 -145 44 43 c79 78 973 969
998 996 14 14 23 26 20 25 -2 0 -60 -17 -129 -38z"/>
<path d="M5585 5393 c8 -27 23 -84 35 -128 12 -44 33 -123 47 -175 14 -52 38
-142 52 -199 l27 -104 225 -223 c123 -123 229 -224 234 -224 6 0 21 39 33 88
12 48 24 94 26 102 7 29 67 255 82 310 8 30 17 62 19 70 2 8 20 79 40 158 20
79 35 145 32 148 -2 3 -116 34 -253 69 -137 36 -326 85 -420 110 -95 25 -177
45 -182 45 -7 0 -6 -16 3 -47z"/>
<path d="M791 2613 c-6 -21 -19 -72 -30 -113 -11 -41 -29 -111 -41 -155 -12
-44 -23 -87 -25 -95 -13 -61 -108 -419 -115 -437 -13 -31 -35 -23 240 -95 63
-16 140 -36 170 -44 30 -9 62 -17 71 -19 9 -2 96 -24 193 -50 98 -25 180 -44
183 -41 3 2 -25 116 -62 253 -113 423 -70 343 -333 606 -125 125 -231 227
-235 227 -3 0 -11 -17 -16 -37z"/>
<path d="M5601 2066 l-534 -534 54 13 c30 8 180 48 334 90 154 42 287 78 296
80 15 3 77 20 214 59 28 8 122 34 210 57 88 23 162 43 164 45 6 5 -191 724
-198 724 -3 0 -246 -240 -540 -534z"/>
<path d="M1553 1895 c3 -11 13 -49 22 -85 9 -36 48 -180 87 -320 38 -140 85
-311 103 -380 18 -69 40 -150 48 -180 9 -30 25 -91 38 -135 12 -44 24 -90 26
-102 3 -13 9 -23 13 -23 9 0 109 26 360 95 113 31 212 58 220 60 82 22 114 32
117 41 2 5 -231 243 -518 529 -287 286 -519 511 -516 500z"/>
<path d="M5385 1419 c-33 -9 -179 -49 -325 -89 l-265 -71 -227 -227 c-126
-125 -228 -229 -228 -232 0 -3 33 -13 73 -22 39 -10 133 -34 207 -53 499 -133
600 -158 605 -153 4 4 35 114 61 218 2 8 8 33 14 55 6 22 12 47 14 55 2 8 20
76 39 150 85 321 98 373 95 380 -2 3 -30 -1 -63 -11z"/>
</g>
</svg>
